<svg xmlns="http://www.w3.org/2000/svg" shape-rendering="geometricPrecision" text-rendering="geometricPrecision" image-rendering="optimizeQuality" fill-rule="evenodd" clip-rule="evenodd" viewBox="0 0 286 512.03" ><path fill="#43567C" fill-rule="nonzero" d="M55.833 0h174.334C260.882 0 286 25.117 286 55.833v400.364c0 30.707-25.126 55.833-55.833 55.833H55.833C25.117 512.03 0 486.913 0 456.197V55.833C0 25.159 25.159 0 55.833 0z"/><path fill="#8CC0F3" d="M276.681 70.044v371.209H9.318V70.044z"/><path fill="#BED7F0" fill-rule="nonzero" d="M33.083 112.744c-5.543 5.542-13.972-2.887-8.43-8.429l18.661-18.661c5.543-5.543 13.972 2.887 8.43 8.429l-18.661 18.661zm4.432 34.078c-5.542 5.542-13.971-2.887-8.429-8.43l48.309-48.308c5.542-5.543 13.971 2.886 8.429 8.429l-48.309 48.309z"/></svg>