<svg xmlns="http://www.w3.org/2000/svg" viewBox="0 0 470 470" style="enable-background:new 0 0 470 470" xml:space="preserve"><path style="fill:#ff6e1d" d="M167.5 257v-12.5H75v75h92.5V287a7.5 7.5 0 0 1 7.5-7.5v-15a7.5 7.5 0 0 1-7.5-7.5z"/><path style="fill:#ffcc75" d="M326 111.5h58.394L326 53.106z"/><path style="fill:#fff" d="M432.5 412.5h-30a7.499 7.499 0 0 1-7.5-7.5V126.5h-76.5a7.499 7.499 0 0 1-7.5-7.5V42.5H15V405c0 12.406 10.093 22.5 22.5 22.5h395c12.406 0 22.5-10.094 22.5-22.5h-15c0 4.143-3.357 7.5-7.5 7.5zM147.954 141.034l26.248-20a7.503 7.503 0 0 1 9.091 0l21.704 16.537 21.707-16.537a7.501 7.501 0 0 1 9.09 0l26.252 20a7.5 7.5 0 0 1-4.551 13.466 7.46 7.46 0 0 1-4.539-1.534l-21.707-16.537-21.708 16.537a7.501 7.501 0 0 1-9.09 0l-21.703-16.537-21.701 16.537a7.5 7.5 0 0 1-9.093-11.932zM175 379.5H67.5c-4.142 0-7.5-3.357-7.5-7.5s3.358-7.5 7.5-7.5H175c4.142 0 7.5 3.357 7.5 7.5s-3.358 7.5-7.5 7.5zm7.5-122.5a7.5 7.5 0 0 1-7.5 7.5v15a7.5 7.5 0 0 1 7.5 7.5v40a7.5 7.5 0 0 1-7.5 7.5H67.5A7.5 7.5 0 0 1 60 327v-90a7.5 7.5 0 0 1 7.5-7.5H175a7.5 7.5 0 0 1 7.5 7.5v20zm160 122.5H235c-4.142 0-7.5-3.357-7.5-7.5s3.358-7.5 7.5-7.5h107.5c4.143 0 7.5 3.357 7.5 7.5s-3.357 7.5-7.5 7.5zm0-45H235c-4.142 0-7.5-3.357-7.5-7.5s3.358-7.5 7.5-7.5h107.5c4.143 0 7.5 3.357 7.5 7.5s-3.357 7.5-7.5 7.5zm0-45H235c-4.142 0-7.5-3.357-7.5-7.5s3.358-7.5 7.5-7.5h107.5c4.143 0 7.5 3.357 7.5 7.5s-3.357 7.5-7.5 7.5zm0-45H235c-4.142 0-7.5-3.357-7.5-7.5s3.358-7.5 7.5-7.5h107.5c4.143 0 7.5 3.357 7.5 7.5s-3.357 7.5-7.5 7.5zm0-45h-275c-4.142 0-7.5-3.357-7.5-7.5s3.358-7.5 7.5-7.5h275c4.143 0 7.5 3.357 7.5 7.5s-3.357 7.5-7.5 7.5z"/><path style="fill:#f2ebd9" d="M407.914 113.818c.131.137.261.274.381.421.043.052.08.109.121.162.109.14.218.281.317.429.03.045.055.093.084.138.103.161.204.324.295.493.016.03.029.063.045.093.097.187.189.376.27.572.008.019.013.038.02.056.084.207.161.417.227.633.007.022.011.045.017.067.062.21.118.423.161.642.012.06.017.122.028.183.031.18.063.36.081.544.025.248.038.498.038.749v278.5h22.5c4.143 0 7.5 3.357 7.5 7.5h15V82.5h-54.072a7.499 7.499 0 0 1-7.5-7.5h-24.32l38.696 38.696c.04.039.073.082.111.122z"/><path style="fill:#082947" d="m157.046 152.966 21.701-16.537 21.703 16.537a7.501 7.501 0 0 0 9.09 0l21.708-16.537 21.707 16.537a7.46 7.46 0 0 0 4.539 1.534 7.5 7.5 0 0 0 4.551-13.466l-26.252-20a7.501 7.501 0 0 0-9.09 0l-21.707 16.537-21.704-16.537a7.503 7.503 0 0 0-9.091 0l-26.248 20a7.501 7.501 0 0 0 9.093 11.932z"/><path style="fill:#082947" d="M462.5 67.5h-61.572c-4.143 0-7.5 3.357-7.5 7.5s3.357 7.5 7.5 7.5H455V405c0 12.406-10.094 22.5-22.5 22.5h-395C25.093 427.5 15 417.406 15 405V42.5h296V119c0 4.143 3.357 7.5 7.5 7.5H395V405c0 4.143 3.357 7.5 7.5 7.5h30c4.143 0 7.5-3.357 7.5-7.5s-3.357-7.5-7.5-7.5H410V119c0-.251-.013-.501-.038-.749-.018-.184-.05-.364-.081-.544-.011-.061-.016-.123-.028-.183a7.257 7.257 0 0 0-.161-.642c-.006-.022-.01-.045-.017-.067a7.548 7.548 0 0 0-.227-.633l-.02-.056a7.46 7.46 0 0 0-.27-.572c-.016-.03-.028-.063-.045-.093a7.64 7.64 0 0 0-.295-.493c-.029-.045-.054-.093-.084-.138a7.414 7.414 0 0 0-.317-.429c-.042-.053-.078-.11-.121-.162a7.573 7.573 0 0 0-.381-.421c-.038-.04-.071-.083-.11-.122l-84-84c-.039-.039-.082-.072-.122-.11a7.573 7.573 0 0 0-.421-.381c-.052-.043-.109-.08-.162-.122a7.752 7.752 0 0 0-.428-.317c-.045-.03-.093-.055-.139-.084a7.211 7.211 0 0 0-.493-.295c-.03-.017-.062-.029-.093-.045a7.287 7.287 0 0 0-.572-.27c-.018-.008-.037-.013-.056-.021a7.548 7.548 0 0 0-.633-.227c-.022-.006-.045-.01-.067-.017a7.257 7.257 0 0 0-.642-.161c-.06-.012-.122-.018-.183-.028-.18-.031-.36-.063-.544-.082a7.453 7.453 0 0 0-.749-.038H7.5A7.503 7.503 0 0 0 0 35v370c0 20.678 16.822 37.5 37.5 37.5h395c20.678 0 37.5-16.822 37.5-37.5V75c0-4.143-3.357-7.5-7.5-7.5zm-136.5 44V53.106l58.394 58.394H326z"/><path style="fill:#082947" d="M175 364.5H67.5c-4.142 0-7.5 3.357-7.5 7.5s3.358 7.5 7.5 7.5H175c4.142 0 7.5-3.357 7.5-7.5s-3.358-7.5-7.5-7.5zM342.5 364.5H235c-4.142 0-7.5 3.357-7.5 7.5s3.358 7.5 7.5 7.5h107.5c4.143 0 7.5-3.357 7.5-7.5s-3.357-7.5-7.5-7.5zM342.5 319.5H235c-4.142 0-7.5 3.357-7.5 7.5s3.358 7.5 7.5 7.5h107.5c4.143 0 7.5-3.357 7.5-7.5s-3.357-7.5-7.5-7.5zM342.5 274.5H235c-4.142 0-7.5 3.357-7.5 7.5s3.358 7.5 7.5 7.5h107.5c4.143 0 7.5-3.357 7.5-7.5s-3.357-7.5-7.5-7.5zM175 229.5H67.5A7.5 7.5 0 0 0 60 237v90a7.5 7.5 0 0 0 7.5 7.5H175a7.5 7.5 0 0 0 7.5-7.5v-40c0-4.143-3.358-7.5-7.5-7.5s-7.5 3.357-7.5 7.5v32.5H75v-75h92.5V257c0 4.143 3.358 7.5 7.5 7.5s7.5-3.357 7.5-7.5v-20a7.5 7.5 0 0 0-7.5-7.5zM342.5 229.5H235c-4.142 0-7.5 3.357-7.5 7.5s3.358 7.5 7.5 7.5h107.5c4.143 0 7.5-3.357 7.5-7.5s-3.357-7.5-7.5-7.5zM342.5 184.5h-275c-4.142 0-7.5 3.357-7.5 7.5s3.358 7.5 7.5 7.5h275c4.143 0 7.5-3.357 7.5-7.5s-3.357-7.5-7.5-7.5z"/></svg>